<?xml version="1.0" encoding="utf-8"?>
<svg version="1.1" xmlns="http://www.w3.org/2000/svg" width="1280" height="288" xmlns:bx="https://boxy-svg.com">
  <defs>
    <bx:export>
      <bx:file format="svg" href="#object-0"/>
    </bx:export>
  </defs>
  <path d="M0 0 C422.4 0 844.8 0 1280 0 C1280 95.04 1280 190.08 1280 288 C857.6 288 435.2 288 0 288 C0 192.96 0 97.92 0 0 Z " fill="#FEFEFE" transform="translate(0,0)" id="object-0"/>
  <path d="M 0 0 C 25.219 19.493 42.919 47.138 47.25 79.063 C 47.312 80.686 49.25 194.983 49.25 250.063 C 36.64 250.063 28.207 247.669 18.25 240.063 C 16.703 238.918 16.703 238.918 15.125 237.75 C 10.984 233.879 6.668 229.323 4.381 224.065 C 2.382 220.526 -1.032 219.374 -4.75 218.063 C -7.508 217.569 -10.163 217.536 -12.96 217.58 C -13.739 217.576 -14.517 217.572 -15.319 217.568 C -16.998 217.562 -18.677 217.565 -20.356 217.577 C -23.034 217.594 -25.711 217.586 -28.389 217.572 C -35.049 217.543 -41.708 217.556 -48.367 217.568 C -53.989 217.576 -59.611 217.567 -65.233 217.538 C -67.834 217.531 -70.434 217.548 -73.035 217.566 C -85.868 217.563 -100.097 216.889 -111.75 211.063 C -111.75 198.523 -111.75 185.983 -111.75 173.063 C -102.75 176.063 -102.75 176.063 -98.777 177.449 C -76.948 184.624 -54.934 182.275 -34.437 172.375 C -22.284 166.109 -12.914 158.103 -4.75 147.063 C -4.283 146.494 -3.817 145.926 -3.336 145.34 C 11.081 127.156 12.966 103.34 10.883 81.152 C 7.382 60.649 -5.785 40.733 -22.375 28.5 C -32.423 21.76 -43.08 17.154 -54.75 14.063 C -55.359 13.886 -55.968 13.709 -56.595 13.528 C -77.095 9.103 -100.355 14.592 -118.129 25.051 C -120.795 26.943 -123.279 28.924 -125.75 31.063 C -127.036 32.128 -127.036 32.128 -128.348 33.215 C -140.988 44.063 -149.666 57.218 -154.75 73.063 C -154.999 73.785 -155.247 74.507 -155.503 75.25 C -158.687 85.863 -158.23 96.701 -158.262 107.672 C -158.279 109.852 -158.297 112.032 -158.316 114.212 C -158.363 119.913 -158.393 125.614 -158.42 131.316 C -158.449 137.148 -158.496 142.98 -158.541 148.813 C -158.627 160.229 -158.694 171.646 -158.75 183.063 C -159.873 182.112 -160.995 181.16 -162.115 180.207 C -163.053 179.412 -163.053 179.412 -164.009 178.601 C -182.048 162.662 -193 133.646 -194.66 109.965 C -195.474 83.672 -191.873 60.183 -178.75 37.063 C -178.196 36.08 -177.641 35.098 -177.07 34.086 C -162.4 9.729 -136.574 -11.963 -108.75 -19.062 C -107.417 -19.355 -106.084 -19.647 -104.75 -19.937 C -102.707 -20.455 -100.666 -20.976 -98.625 -21.5 C -64.795 -30.159 -27.925 -19.754 0 0 Z" fill="#AC2CED" transform="translate(220.75,28.9375)"/>
  <path d="M0 0 C7.13930547 6.18290795 11.54519083 13.46172083 12.33258057 22.95506287 C12.41612301 26.64553225 12.40766007 30.32447647 12.36328125 34.015625 C12.3576741 35.37039211 12.3534093 36.72516538 12.35041809 38.0799408 C12.33905716 41.61621401 12.30966771 45.15210748 12.27630615 48.68823242 C12.24541441 52.30837782 12.23170695 55.92858744 12.21679688 59.54882812 C12.18638585 66.63054182 12.12764602 73.71121779 12.0703125 80.79296875 C2.8303125 80.79296875 -6.4096875 80.79296875 -15.9296875 80.79296875 C-15.95546875 76.97605469 -15.98125 73.15914063 -16.0078125 69.2265625 C-16.04625213 65.51970116 -16.09140646 61.81297801 -16.13720703 58.10620117 C-16.16538924 55.5349795 -16.18661737 52.96367163 -16.20068359 50.39233398 C-16.22215008 46.69079549 -16.26882315 42.99029035 -16.3203125 39.2890625 C-16.32154114 38.14400742 -16.32276978 36.99895233 -16.32403564 35.81919861 C-16.44358054 29.26807097 -17.02262105 25.12313887 -20.9296875 19.79296875 C-24.15184688 16.73191734 -27.44360373 15.85568924 -31.8046875 15.29296875 C-36.55769499 15.58830125 -41.1266722 16.8980343 -44.9296875 19.79296875 C-50.44989231 26.12145734 -50.66471947 32.27059765 -50.63671875 40.38671875 C-50.65940071 42.16761902 -50.65940071 42.16761902 -50.68254089 43.98449707 C-50.7253218 47.7541823 -50.73424732 51.52306523 -50.7421875 55.29296875 C-50.76533904 57.8580941 -50.79070572 60.42320048 -50.81835938 62.98828125 C-50.88526296 69.25694419 -50.90632525 75.5233895 -50.9296875 81.79296875 C-59.1796875 81.79296875 -67.4296875 81.79296875 -75.9296875 81.79296875 C-75.95546875 77.98765625 -75.98125 74.18234375 -76.0078125 70.26171875 C-76.04626473 66.56144935 -76.091415 62.8613178 -76.13720703 59.16113281 C-76.16536931 56.59674704 -76.18660731 54.03227522 -76.20068359 51.46777344 C-76.22217776 47.77364198 -76.26886495 44.08053988 -76.3203125 40.38671875 C-76.32154114 39.24682495 -76.32276978 38.10693115 -76.32403564 36.93249512 C-76.44852436 30.11092058 -77.2674702 25.59813547 -80.9296875 19.79296875 C-84.82328179 16.43274354 -88.38781482 16.33330373 -93.4296875 16.29296875 C-94.71875 16.26203125 -96.0078125 16.23109375 -97.3359375 16.19921875 C-102.98815045 17.13306263 -104.80944724 20.24165692 -108.03417969 24.70727539 C-110.9082002 29.85286976 -110.53276866 35.31668749 -110.5390625 41.0703125 C-110.55559875 42.23679825 -110.57213501 43.403284 -110.58917236 44.6051178 C-110.63757462 48.31362211 -110.65900717 52.02171652 -110.6796875 55.73046875 C-110.7078535 58.25197366 -110.73778181 60.77345954 -110.76953125 63.29492188 C-110.84663415 69.46112468 -110.88723017 75.62604159 -110.9296875 81.79296875 C-119.1796875 81.79296875 -127.4296875 81.79296875 -135.9296875 81.79296875 C-135.9296875 53.08296875 -135.9296875 24.37296875 -135.9296875 -5.20703125 C-127.6796875 -5.20703125 -119.4296875 -5.20703125 -110.9296875 -5.20703125 C-110.9296875 -2.56703125 -110.9296875 0.07296875 -110.9296875 2.79296875 C-110.0221875 2.05046875 -109.1146875 1.30796875 -108.1796875 0.54296875 C-97.76646762 -6.78176106 -85.46445142 -7.66199128 -73.1796875 -5.58203125 C-66.9013923 -3.94779336 -60.14868883 -0.20178444 -55.9296875 4.79296875 C-55.9296875 5.45296875 -55.9296875 6.11296875 -55.9296875 6.79296875 C-55.2696875 6.79296875 -54.6096875 6.79296875 -53.9296875 6.79296875 C-53.65125 5.95765625 -53.65125 5.95765625 -53.3671875 5.10546875 C-49.26944225 -1.48655621 -40.36464061 -5.02437709 -33.1171875 -6.95703125 C-21.03437511 -7.90470281 -10.11221788 -7.33951297 0 0 Z " fill="#040404" transform="translate(613.9296875,108.20703125)"/>
  <path d="M0 0 C8.58 0 17.16 0 26 0 C32.3407178 13.20116656 38.34978214 26.50752551 44.21386719 39.92578125 C47.53637898 47.51440388 50.89498942 55.08718708 54.24575806 62.6633606 C55.49357279 65.48546399 56.74048509 68.30796423 57.98706055 71.13061523 C62.89477661 82.24473075 62.89477661 82.24473075 67.82162476 93.35037231 C68.63091875 95.17057614 69.43854636 96.9915206 70.24609375 98.8125 C71.17932005 100.91668504 72.11533813 103.01963503 73.0546875 105.12109375 C73.45300781 106.02085937 73.85132813 106.920625 74.26171875 107.84765625 C74.60162842 108.61086182 74.94153809 109.37406738 75.29174805 110.16040039 C76 112 76 112 76 114 C67.09 114 58.18 114 49 114 C45.6046997 106.36057432 42.29314858 98.68401336 39 91 C21.51 91 4.02 91 -14 91 C-16.97 98.59 -19.94 106.18 -23 114 C-31.91 114 -40.82 114 -50 114 C-47.94428953 107.83286859 -45.82293097 102.08911968 -43.11328125 96.234375 C-42.73900497 95.41481827 -42.3647287 94.59526154 -41.97911072 93.75086975 C-41.17677797 91.99412004 -40.37261662 90.2382045 -39.56677246 88.48306274 C-31.93922045 71.86260836 -24.52413508 55.16182832 -17.34106445 38.34472656 C-13.94951287 30.41723931 -10.4509177 22.55963353 -6.76464844 14.7644043 C-4.46691105 9.86279766 -2.24009787 4.92821532 0 0 Z " fill="#050505" transform="translate(389,76)"/>
  <path d="M0 0 C65.89473684 0 65.89473684 0 80.875 12.375 C89.73571585 23.32059017 91.96893274 33.17194556 91 47 C89.74320543 56.05631383 84.75500188 64.34459231 77.5 69.921875 C75.04853169 71.43162073 72.59675924 72.75899558 70 74 C69.34644531 74.31453125 68.69289063 74.6290625 68.01953125 74.953125 C66.37194517 75.69508429 64.68650243 76.35134522 63 77 C62.1445459 77.35175293 61.2890918 77.70350586 60.40771484 78.06591797 C55.94473226 79.28925737 51.83064204 79.24884892 47.2265625 79.1953125 C46.3028183 79.1924826 45.3790741 79.18965271 44.42733765 79.18673706 C41.49309024 79.17559179 38.5591543 79.15049765 35.625 79.125 C33.62891068 79.11496289 31.63281654 79.10583832 29.63671875 79.09765625 C24.75759757 79.07737728 19.87914517 79.03821785 15 79 C15 90.22 15 101.44 15 113 C10.05 113 5.1 113 0 113 C0 75.71 0 38.42 0 0 Z " fill="#030303" transform="translate(969,79)"/>
  <path d="M0 0 C7.92 0 15.84 0 24 0 C27.68469101 10.56741573 27.68469101 10.56741573 29.48828125 15.765625 C30.80893389 19.57192885 32.13120014 23.37764903 33.45849609 27.18164062 C34.72643923 30.81602778 35.98953958 34.4520698 37.24984741 38.08911133 C37.74969485 39.52897128 38.25117903 40.96826409 38.75430298 42.40698242 C39.46552869 44.44172404 40.17090475 46.47840689 40.875 48.515625 C41.28492188 49.69415039 41.69484375 50.87267578 42.1171875 52.08691406 C43 55 43 55 43 58 C43.66 58 44.32 58 45 58 C45.10054687 57.19949219 45.20109375 56.39898437 45.3046875 55.57421875 C46.1671493 51.14077749 47.59982798 47.05586566 49.125 42.8125 C49.4341333 41.93972412 49.7432666 41.06694824 50.06176758 40.16772461 C52.49769157 33.31942148 55.03053063 26.50800521 57.5690918 19.69726562 C59.97224574 13.19712292 62.04381832 6.6510177 64 0 C71.26 0 78.52 0 86 0 C90.67324098 11.63338711 94.8678169 23.32173985 98.71459961 35.25512695 C101.12878299 42.66882574 103.89322402 49.84876656 107 57 C107.27803467 56.31929443 107.55606934 55.63858887 107.8425293 54.93725586 C108.50569661 53.31363932 109.16886393 51.69002279 109.83203125 50.06640625 C111.04970542 46.86950249 112.13294198 43.64663072 113.20336914 40.39819336 C114.52623988 36.415797 115.92141152 32.45897963 117.3125 28.5 C117.6130127 27.6443042 117.91352539 26.7886084 118.22314453 25.90698242 C118.84238166 24.14412527 119.46184765 22.38134849 120.08154297 20.61865234 C120.97674787 18.06629514 121.86608558 15.51196509 122.75390625 12.95703125 C123.29421535 11.4088348 123.83457736 9.86065682 124.375 8.3125 C124.62548096 7.58804688 124.87596191 6.86359375 125.1340332 6.1171875 C126.88675391 1.11324609 126.88675391 1.11324609 128 0 C129.63472882 -0.08700342 131.27314055 -0.10701063 132.91015625 -0.09765625 C133.89951172 -0.09443359 134.88886719 -0.09121094 135.90820312 -0.08789062 C136.94912109 -0.07951172 137.99003906 -0.07113281 139.0625 -0.0625 C140.62967773 -0.05573242 140.62967773 -0.05573242 142.22851562 -0.04882812 C144.81906936 -0.03699911 147.40949746 -0.01967834 150 0 C148.06292948 7.57114635 145.71542807 14.8773355 142.98046875 22.1953125 C142.59941483 23.22703583 142.2183609 24.25875916 141.82575989 25.32174683 C140.61738667 28.59113945 139.40275825 31.85816112 138.1875 35.125 C136.59573329 39.4185601 135.00660877 43.71309468 133.41796875 48.0078125 C133.03357635 49.04520569 132.64918396 50.08259888 132.25314331 51.15142822 C129.54824468 58.46698754 126.92747662 65.80738913 124.38012695 73.17919922 C122.70060786 77.82884963 120.83603897 82.40990259 119 87 C111.08 87 103.16 87 95 87 C94.48824219 85.43636719 93.97648438 83.87273437 93.44921875 82.26171875 C90.68097994 73.95944238 87.7282592 65.72381661 84.77172852 57.48706055 C83.80115404 54.78086473 82.8350977 52.07308127 81.86914062 49.36523438 C81.25287747 47.64573536 80.63635099 45.92633069 80.01953125 44.20703125 C79.73100784 43.3967598 79.44248444 42.58648834 79.1452179 41.75166321 C78.05454237 38.09800746 78.05454237 38.09800746 76 35 C70.02848375 49.73821031 64.4201662 64.56674033 59.27172852 79.61401367 C58.84911743 80.83954956 58.84911743 80.83954956 58.41796875 82.08984375 C58.16813232 82.82066162 57.9182959 83.55147949 57.66088867 84.30444336 C57 86 57 86 56 87 C54.21928754 87.08726223 52.4351686 87.10699041 50.65234375 87.09765625 C49.57275391 87.09443359 48.49316406 87.09121094 47.38085938 87.08789062 C46.24455078 87.07951172 45.10824219 87.07113281 43.9375 87.0625 C42.79732422 87.05798828 41.65714844 87.05347656 40.48242188 87.04882812 C37.65489649 87.03699747 34.8274736 87.0205141 32 87 C29.14140033 81.55329181 26.91597694 76.232064 25.0625 70.375 C24.5480763 68.79127596 24.03243618 67.20794655 23.515625 65.625 C23.26232422 64.84640625 23.00902344 64.0678125 22.74804688 63.265625 C20.30735033 55.87343702 17.59903615 48.57071474 14.85913086 41.28515625 C13.87458958 38.66642752 12.89426766 36.04613604 11.9140625 33.42578125 C11.15109501 31.38800086 10.38807241 29.3502411 9.625 27.3125 C9.22869385 26.25337402 8.8323877 25.19424805 8.42407227 24.10302734 C5.92901663 17.4451227 3.39518595 10.80602514 0.77734375 4.1953125 C0 2 0 2 0 0 Z " fill="#050505" transform="translate(634,103)"/>
  <path d="M0 0 C13.29828002 -0.76818923 25.49749459 1.37712029 35.99023438 10.12841797 C42.58567881 16.57396594 46.21764001 24.75394641 46.55786133 33.97680664 C46.5570805 36.50013849 46.52947731 39.02356941 46.47851562 41.54638672 C46.46916434 42.89828672 46.46205921 44.25020392 46.45707703 45.60212708 C46.43818816 49.12224963 46.38925187 52.64130389 46.33355713 56.16101074 C46.28196681 59.7678381 46.25947911 63.37484187 46.234375 66.98193359 C46.18110874 74.0312349 46.09332837 81.07964328 45.99023438 88.12841797 C38.40023437 88.12841797 30.81023437 88.12841797 22.99023438 88.12841797 C22.99023438 85.15841797 22.99023438 82.18841797 22.99023438 79.12841797 C22.33023438 79.12841797 21.67023437 79.12841797 20.99023438 79.12841797 C20.71179688 79.99466797 20.71179688 79.99466797 20.42773438 80.87841797 C18.32686672 84.16673256 15.4218175 85.51550752 11.99023438 87.12841797 C11.06791016 87.5828125 11.06791016 87.5828125 10.12695312 88.04638672 C1.28712222 91.70247212 -10.75843806 91.77266279 -19.69726562 88.44091797 C-26.57721169 85.10023108 -30.63986797 80.99302431 -34.00976562 74.12841797 C-36.15092947 67.58918785 -36.42144173 58.75340054 -33.91601562 52.31982422 C-29.31042981 45.05622745 -23.00216716 41.0347458 -15.00976562 38.12841797 C-10.57900787 37.21280098 -6.38023652 37.01145014 -1.86132812 37.03076172 C-0.87524063 37.03288414 -0.87524063 37.03288414 0.13076782 37.03504944 C2.20897169 37.04060035 4.28706365 37.05314332 6.36523438 37.06591797 C7.78320156 37.07093933 9.20117045 37.07550112 10.61914062 37.07958984 C14.07620759 37.0905536 17.53321004 37.10778376 20.99023438 37.12841797 C20.56556941 35.35446289 20.12499348 33.58431166 19.67773438 31.81591797 C19.43410156 30.82978516 19.19046875 29.84365234 18.93945312 28.82763672 C17.97346571 26.08073424 17.25939913 24.89175176 14.99023438 23.12841797 C5.95947486 19.31314688 -4.13209761 20.03139925 -13.13476562 23.50341797 C-15.10157146 24.35920371 -17.06083515 25.23266998 -19.00976562 26.12841797 C-20.67297214 26.80367075 -22.33849522 27.47337792 -24.00976562 28.12841797 C-25.37622263 25.53005661 -26.72807232 22.92576241 -28.07226562 20.31591797 C-28.65717773 19.20893555 -28.65717773 19.20893555 -29.25390625 18.07958984 C-29.80014648 17.0112793 -29.80014648 17.0112793 -30.35742188 15.92138672 C-30.69781494 15.26678467 -31.03820801 14.61218262 -31.38891602 13.93774414 C-32.00976562 12.12841797 -32.00976562 12.12841797 -31.00976562 9.12841797 C-21.18969612 2.58656158 -11.66085665 0.74509361 0 0 Z " fill="#040404" transform="translate(825.009765625,99.87158203125)"/>
  <path d="M0 0 C8.63628213 6.56450556 14.88504731 15.21750713 16.9609375 26.015625 C18.07231433 39.33450607 14.84742821 50.53973127 6.1484375 60.828125 C-1.64207314 69.08461011 -10.49573209 72.91221152 -21.83984375 73.47094727 C-33.40392946 73.72003245 -43.59870094 70.05493266 -52.0390625 62.015625 C-54.65343491 59.1757831 -56.90253998 56.22852216 -59.0390625 53.015625 C-59.69455078 52.05269531 -59.69455078 52.05269531 -60.36328125 51.0703125 C-65.12269016 42.5534755 -64.34164559 29.80194904 -61.9765625 20.578125 C-57.4333197 8.32193511 -49.48785893 0.34732978 -37.86328125 -5.2578125 C-25.38001475 -10.22973449 -10.86806577 -7.09637199 0 0 Z " fill="#B42EEA" transform="translate(170.0390625,91.984375)"/>
  <path d="M0 0 C0.73863281 0.38800781 1.47726562 0.77601562 2.23828125 1.17578125 C8.9779668 5.27543932 12.52152154 12.72582426 15 20 C15.83861982 24.9461446 15.8268792 29.70575208 15.68359375 34.7109375 C15.67048922 36.05853665 15.66054811 37.40616984 15.65357971 38.7538147 C15.62723236 42.24972551 15.55882118 45.74350192 15.48065186 49.23858643 C15.40820381 52.82543073 15.37689703 56.41263027 15.34179688 60 C15.26739839 67.00094158 15.14459968 74.00010417 15 81 C10.05 81 5.1 81 0 81 C-0.495 76.545 -0.495 76.545 -1 72 C-1.556875 72.598125 -2.11375 73.19625 -2.6875 73.8125 C-10.97788444 81.65475555 -22.00712007 82.40108565 -32.91015625 82.27734375 C-41.14793219 81.53792265 -49.25340411 78.0196242 -55 72 C-60.26700687 64.92165662 -61.15929693 57.62296096 -60 49 C-58.47570039 43.19630023 -55.21030697 39.85309878 -50.48828125 36.32421875 C-43.83597859 32.78398233 -37.50007034 31.5553601 -30.02734375 31.70703125 C-29.21882462 31.71127609 -28.41030548 31.71552094 -27.57728577 31.71989441 C-25.03033127 31.73649965 -22.4842096 31.77411467 -19.9375 31.8125 C-18.19597508 31.82757042 -16.45443759 31.84125466 -14.71289062 31.85351562 C-10.47494639 31.88634316 -6.23761368 31.93799545 -2 32 C-2.29143723 30.07188587 -2.59121931 28.14503181 -2.89453125 26.21875 C-3.06057861 25.14560547 -3.22662598 24.07246094 -3.39770508 22.96679688 C-4.31129276 18.46662763 -5.92387098 15.46466636 -9.7109375 12.79296875 C-18.03230151 7.82472821 -28.81886838 7.46043331 -38.16796875 9.7890625 C-41.6663456 11.17571112 -44.73629667 12.83728943 -47.9375 14.8125 C-48.618125 15.204375 -49.29875 15.59625 -50 16 C-53 15 -53 15 -54.38671875 12.71484375 C-54.81597656 11.79832031 -55.24523438 10.88179687 -55.6875 9.9375 C-56.12449219 9.01839844 -56.56148437 8.09929687 -57.01171875 7.15234375 C-57.33785156 6.44207031 -57.66398437 5.73179688 -58 5 C-42.62337524 -6.91986415 -17.08064305 -10.67182556 0 0 Z " fill="#060606" transform="translate(1136,111)"/>
  <path d="M0 0 C5.28 0 10.56 0 16 0 C19.53847943 6.81677655 22.59795977 13.82258675 25.63623047 20.87158203 C26.4956086 22.86481462 27.35885162 24.85633858 28.22265625 26.84765625 C30.95414869 33.15890659 33.61704369 39.48825293 36.14160156 45.88574219 C37.35536022 48.87526152 38.73074744 51.77854898 40.125 54.6875 C42.18803425 59.09489135 43.89860864 63.26401716 45 68 C45.66 68 46.32 68 47 68 C47.10795898 67.31317139 47.21591797 66.62634277 47.32714844 65.91870117 C48.11565279 62.49832035 49.36534491 59.52031412 50.765625 56.30078125 C51.04090027 55.66569138 51.31617554 55.0306015 51.59979248 54.37626648 C52.18251455 53.03473731 52.76762683 51.69424415 53.35498047 50.35473633 C54.23857043 48.33857975 55.11404282 46.31905443 55.98828125 44.29882812 C58.8109656 37.80551271 61.74736748 31.4025278 64.96777344 25.09448242 C66.34647046 22.29697964 67.44203826 19.43206538 68.5 16.5 C70.64085252 10.77067087 73.16896108 5.41941736 76 0 C80.95 0 85.9 0 91 0 C90.27874575 2.88501701 89.57320883 5.20957033 88.42578125 7.89453125 C88.09505615 8.66949951 87.76433105 9.44446777 87.42358398 10.24291992 C87.05692627 11.09088135 86.69026855 11.93884277 86.3125 12.8125 C85.73060913 14.16468628 85.73060913 14.16468628 85.13696289 15.54418945 C80.0497813 27.29234136 74.73263471 38.93831349 69.44537354 50.5973053 C67.04696111 55.88901676 64.67025241 61.19006064 62.3125 66.5 C62.01013428 67.18022217 61.70776855 67.86044434 61.39624023 68.5612793 C58.67770234 74.69467133 56.05289043 80.80014327 53.8125 87.125 C49.43433908 98.53714318 43.06396448 110.79788513 31.6875 116.4375 C26.79322801 118.17417716 22.01937972 118.41644127 16.875 118.5 C15.7471106 118.52791626 15.7471106 118.52791626 14.59643555 118.55639648 C8.30353047 118.48541092 2.91056598 116.75503956 -1.72705078 112.36523438 C-2.14712402 111.91470703 -2.56719727 111.46417969 -3 111 C-1.77472971 106.94718288 -0.30119506 103.55639236 2 100 C4.52117267 100.46688383 6.06975177 101.04769247 8.2109375 102.51171875 C13.44427541 105.30429822 19.23867169 104.67860169 25 104 C30.80437976 101.09781012 33.08686156 95.89694856 36.19140625 90.328125 C37.90815939 83.26206859 33.02021177 75.50804287 30.078125 69.12890625 C29.70079727 68.30055771 29.32346954 67.47220917 28.93470764 66.61875916 C28.12759022 64.84768414 27.31854639 63.07748596 26.50772095 61.30810547 C24.36861835 56.6384434 22.24576724 51.96139657 20.12109375 47.28515625 C19.69189133 46.34141144 19.2626889 45.39766663 18.82048035 44.42532349 C14.93669378 35.87878495 11.09716593 27.31314346 7.2989502 18.72824097 C6.64293963 17.24641287 5.98547553 15.76522738 5.32653809 14.28469849 C4.41838951 12.24350852 3.51506761 10.20025714 2.61328125 8.15625 C1.85204956 6.43631836 1.85204956 6.43631836 1.07543945 4.68164062 C0 2 0 2 0 0 Z " fill="#070707" transform="translate(1164,106)"/>
  <path d="M0 0 C8.25 0 16.5 0 25 0 C25 39.6 25 79.2 25 120 C16.75 120 8.5 120 0 120 C0 80.4 0 40.8 0 0 Z " fill="#020202" transform="translate(897,70)"/>
  <path d="M0 0 C9.3740625 -0.12375 9.3740625 -0.12375 18.9375 -0.25 C20.89163818 -0.28641602 22.84577637 -0.32283203 24.85913086 -0.36035156 C26.43602404 -0.37205158 28.01292946 -0.38224028 29.58984375 -0.390625 C30.38588013 -0.41108887 31.1819165 -0.43155273 32.0020752 -0.45263672 C38.12982383 -0.45638286 42.60095036 1.18366142 48 4 C49.0725 4.53625 50.145 5.0725 51.25 5.625 C56.15608384 9.86207241 58.55622292 14.81252288 59.44921875 21.2265625 C59.71514823 29.05772729 58.65150506 35.96407189 53.26538086 41.91723633 C43.06381661 51.2964307 31.1208741 50.75370126 18.1875 50.375 C12.185625 50.25125 6.18375 50.1275 0 50 C0 33.5 0 17 0 0 Z " fill="#FBFBFB" transform="translate(985,94)"/>
  <path d="M0 0 C1.55336242 0.02009357 3.1067499 0.0383393 4.66015625 0.0546875 C8.44072979 0.09846321 12.22008511 0.16733026 16 0.25 C16.08832866 2.30911469 16.15105115 4.36933715 16.203125 6.4296875 C16.24083008 7.57679199 16.27853516 8.72389648 16.31738281 9.90576172 C15.72599964 16.13712069 11.66744458 20.00570426 7.0546875 23.88671875 C0.7078404 28.09783974 -7.55236756 29.29195812 -15 28.25 C-19.83617115 26.97452629 -23.76647641 25.28723617 -26.5625 21 C-28.45804545 16.94805422 -28.49956609 13.67472823 -28 9.25 C-26.44237609 4.96653423 -23.84198049 3.04710606 -19.77734375 1.07910156 C-13.45434568 -0.8084601 -6.54098286 -0.14736327 0 0 Z " fill="#F7F7F7" transform="translate(1119,153.75)"/>
  <path d="M0 0 C3.18403731 1.59201866 3.61481927 4.86852604 4.75 8.0625 C5.28247037 9.51956111 5.81502494 10.97659146 6.34765625 12.43359375 C6.61980957 13.18624512 6.89196289 13.93889648 7.17236328 14.71435547 C8.49184429 18.35830271 9.83700957 21.9924546 11.1875 25.625 C11.54376465 26.5996521 11.54376465 26.5996521 11.90722656 27.59399414 C13.0140207 30.57808142 14.20166784 33.38641251 15.67578125 36.2109375 C17 39 17 39 17 43 C5.78 43 -5.44 43 -17 43 C-13.64554243 31.81847476 -13.64554243 31.81847476 -11.625 27.1875 C-9.79111921 22.90844483 -8.0749386 18.60810581 -6.4375 14.25 C-4.5625457 9.31934486 -2.46721273 4.66029071 0 0 Z " fill="#F6F6F6" transform="translate(401,103)"/>
  <path d="M0 0 C1.60004883 0.00966797 1.60004883 0.00966797 3.23242188 0.01953125 C4.33521484 0.03628906 5.43800781 0.05304688 6.57421875 0.0703125 C7.69634766 0.07933594 8.81847656 0.08835938 9.97460938 0.09765625 C12.73719784 0.12116764 15.49934807 0.15403095 18.26171875 0.1953125 C18.31776519 1.78084171 18.35757372 3.36694983 18.390625 4.953125 C18.41455322 5.83629395 18.43848145 6.71946289 18.46313477 7.62939453 C18.13532635 11.80547511 16.25257413 14.37686232 13.26171875 17.1953125 C7.68702294 21.36046108 2.14477308 22.56248797 -4.7421875 22.484375 C-8.08424678 22.00039773 -10.1955424 20.31426154 -12.73828125 18.1953125 C-15.20234573 14.49921578 -15.41692932 11.48503859 -14.73828125 7.1953125 C-11.20892287 1.18233156 -6.7006708 -0.07166493 0 0 Z " fill="#F1F1F1" transform="translate(829.73828125,152.8046875)"/>
  <path d="M0 0 C0 3 0 3 -1.25 4.625 C-3.17415516 6.1368362 -4.60989418 6.58791279 -7 7 C-7 7.66 -7 8.32 -7 9 C-8.32 8.67 -9.64 8.34 -11 8 C-7.37 5.36 -3.74 2.72 0 0 Z " fill="#A547D4" transform="translate(206,188)"/>
  <path d="M0 0 C4.51478398 0.53115106 7.34666857 2.36620292 11 5 C8 6 8 6 5.8125 5.0625 C5.214375 4.711875 4.61625 4.36125 4 4 C4 3.34 4 2.68 4 2 C2.68 1.34 1.36 0.68 0 0 Z " fill="#A74ED2" transform="translate(160,88)"/>
</svg>