<?xml version="1.0" encoding="utf-8"?>
<!-- App / dock mark only (no wordmark, no white plate). Derived from amwal-pay-logo.svg -->
<svg xmlns="http://www.w3.org/2000/svg" viewBox="10 2 278 284" width="1024" height="1024">
  <rect x="10" y="2" width="278" height="284" fill="#ffffff"/>
  <path d="M 0 0 C 25.219 19.493 42.919 47.138 47.25 79.063 C 47.312 80.686 49.25 194.983 49.25 250.063 C 36.64 250.063 28.207 247.669 18.25 240.063 C 16.703 238.918 16.703 238.918 15.125 237.75 C 10.984 233.879 6.668 229.323 4.381 224.065 C 2.382 220.526 -1.032 219.374 -4.75 218.063 C -7.508 217.569 -10.163 217.536 -12.96 217.58 C -13.739 217.576 -14.517 217.572 -15.319 217.568 C -16.998 217.562 -18.677 217.565 -20.356 217.577 C -23.034 217.594 -25.711 217.586 -28.389 217.572 C -35.049 217.543 -41.708 217.556 -48.367 217.568 C -53.989 217.576 -59.611 217.567 -65.233 217.538 C -67.834 217.531 -70.434 217.548 -73.035 217.566 C -85.868 217.563 -100.097 216.889 -111.75 211.063 C -111.75 198.523 -111.75 185.983 -111.75 173.063 C -102.75 176.063 -102.75 176.063 -98.777 177.449 C -76.948 184.624 -54.934 182.275 -34.437 172.375 C -22.284 166.109 -12.914 158.103 -4.75 147.063 C -4.283 146.494 -3.817 145.926 -3.336 145.34 C 11.081 127.156 12.966 103.34 10.883 81.152 C 7.382 60.649 -5.785 40.733 -22.375 28.5 C -32.423 21.76 -43.08 17.154 -54.75 14.063 C -55.359 13.886 -55.968 13.709 -56.595 13.528 C -77.095 9.103 -100.355 14.592 -118.129 25.051 C -120.795 26.943 -123.279 28.924 -125.75 31.063 C -127.036 32.128 -127.036 32.128 -128.348 33.215 C -140.988 44.063 -149.666 57.218 -154.75 73.063 C -154.999 73.785 -155.247 74.507 -155.503 75.25 C -158.687 85.863 -158.23 96.701 -158.262 107.672 C -158.279 109.852 -158.297 112.032 -158.316 114.212 C -158.363 119.913 -158.393 125.614 -158.42 131.316 C -158.449 137.148 -158.496 142.98 -158.541 148.813 C -158.627 160.229 -158.694 171.646 -158.75 183.063 C -159.873 182.112 -160.995 181.16 -162.115 180.207 C -163.053 179.412 -163.053 179.412 -164.009 178.601 C -182.048 162.662 -193 133.646 -194.66 109.965 C -195.474 83.672 -191.873 60.183 -178.75 37.063 C -178.196 36.08 -177.641 35.098 -177.07 34.086 C -162.4 9.729 -136.574 -11.963 -108.75 -19.062 C -107.417 -19.355 -106.084 -19.647 -104.75 -19.937 C -102.707 -20.455 -100.666 -20.976 -98.625 -21.5 C -64.795 -30.159 -27.925 -19.754 0 0 Z" fill="#AC2CED" transform="translate(220.75,28.9375)"/>
  <path d="M0 0 C8.63628213 6.56450556 14.88504731 15.21750713 16.9609375 26.015625 C18.07231433 39.33450607 14.84742821 50.53973127 6.1484375 60.828125 C-1.64207314 69.08461011 -10.49573209 72.91221152 -21.83984375 73.47094727 C-33.40392946 73.72003245 -43.59870094 70.05493266 -52.0390625 62.015625 C-54.65343491 59.1757831 -56.90253998 56.22852216 -59.0390625 53.015625 C-59.69455078 52.05269531 -59.69455078 52.05269531 -60.36328125 51.0703125 C-65.12269016 42.5534755 -64.34164559 29.80194904 -61.9765625 20.578125 C-57.4333197 8.32193511 -49.48785893 0.34732978 -37.86328125 -5.2578125 C-25.38001475 -10.22973449 -10.86806577 -7.09637199 0 0 Z " fill="#B42EEA" transform="translate(170.0390625,91.984375)"/>
  <!-- Launch badge: green play (bottom-right, max size in artboard) -->
  <g transform="translate(216, 214)" aria-hidden="true">
    <circle cx="32" cy="32" r="32" fill="#22c55e" stroke="#15803d" stroke-width="2"/>
    <polygon points="19,17 19,47 51,32" fill="#ffffff"/>
  </g>
</svg>
